<svg width="102" height="16" viewBox="0 0 102 16" fill="none" xmlns="http://www.w3.org/2000/svg">
<g clip-path="url(#clip0)">
<g opacity="0.01">
<rect x="56.2964" width="21.9259" height="14.8148" fill="white"/>
</g>
<rect x="64.3218" y="2.51196" width="5.75099" height="9.39307" fill="#FF5F00"/>
<path d="M64.9146 7.20941C64.9131 5.37676 65.7544 3.64522 67.196 2.51371C64.7469 0.588978 61.2299 0.869332 59.1167 3.15775C57.0034 5.44616 57.0034 8.97433 59.1167 11.2627C61.2299 13.5512 64.7469 13.8315 67.196 11.9068C65.754 10.7749 64.9126 9.04265 64.9146 7.20941Z" fill="#EB001B"/>
<path fill-rule="evenodd" clip-rule="evenodd" d="M76.2903 10.7188V10.9113H76.2538V10.7188H76.1758V10.679H76.3732V10.7188H76.2903ZM76.6736 10.679V10.9113H76.6321V10.7355L76.5674 10.8864H76.5226L76.4579 10.7355V10.9113H76.4147V10.679H76.4744L76.5441 10.845L76.6138 10.679H76.6736Z" fill="#F79E1B"/>
<path d="M76.861 7.20952C76.8609 9.49654 75.5551 11.5828 73.498 12.5822C71.4409 13.5816 68.9937 13.3187 67.1958 11.9052C68.6368 10.7728 69.4782 9.04144 69.4782 7.20869C69.4782 5.37594 68.6368 3.64463 67.1958 2.51216C68.9937 1.09865 71.4409 0.835787 73.498 1.8352C75.5551 2.83461 76.8609 4.92084 76.861 7.20786V7.20952Z" fill="#F79E1B"/>
<path d="M0 0.592529H13.2411V7.74048L12.5857 8.76454L13.2411 9.67595V13.8336H0V7.09532L0.409624 6.62425L0 6.17366V0.592529Z" fill="#016FD0"/>
<path d="M2.57031 9.81932V7.74048H4.77142L5.00758 8.04834L5.25154 7.74048H13.241V9.67595C13.241 9.67595 13.0321 9.81724 12.7904 9.81932H8.3665L8.10024 9.49162V9.81932H7.22774V9.25993C7.22774 9.25993 7.10856 9.33801 6.85089 9.33801H6.55391V9.81932H5.23287L4.99705 9.50486L4.75762 9.81932H2.57031Z" fill="white"/>
<path d="M0 6.17379L0.496359 5.0166H1.35476L1.63645 5.66481V5.0166H2.70352L2.87121 5.48511L3.03378 5.0166H7.82383V5.25214C7.82383 5.25214 8.07564 5.0166 8.48947 5.0166L10.0437 5.02203L10.3205 5.66176V5.0166H11.2135L11.4592 5.38407V5.0166H12.3604V7.09545H11.4592L11.2237 6.72678V7.09545H9.91172L9.77979 6.76775H9.42708L9.29729 7.09545H8.40754C8.05145 7.09545 7.82383 6.86472 7.82383 6.86472V7.09545H6.48231L6.21605 6.76775V7.09545H1.22759L1.09575 6.76775H0.744164L0.613248 7.09545H0L0 6.17379Z" fill="white"/>
<path fill-rule="evenodd" clip-rule="evenodd" d="M0.00244141 6.82928L0.671921 5.27271H1.17947L1.84831 6.82928H1.40285L1.27996 6.51758H0.561835L0.438307 6.82928H0.00244141ZM1.13862 6.17977L0.919728 5.63509L0.700195 6.17977H1.13862Z" fill="#016FD0"/>
<path d="M1.89453 6.82928V5.27271L2.51392 5.27501L2.87418 6.27859L3.22581 5.27271H3.84025V6.82928H3.4511V5.68233L3.0386 6.82928H2.69732L2.28367 5.68233V6.82928H1.89453Z" fill="#016FD0"/>
<path d="M4.10645 6.82928V5.27271H5.37628V5.62089H4.49968V5.88714H5.3558V6.21484H4.49968V6.49134H5.37628V6.82928H4.10645Z" fill="#016FD0"/>
<path fill-rule="evenodd" clip-rule="evenodd" d="M5.60156 6.82928V5.27271H6.46753C6.75447 5.27271 7.01157 5.45014 7.01157 5.7777C7.01157 6.05771 6.7948 6.23807 6.58466 6.2558L7.09669 6.82928H6.62114L6.15456 6.27628H5.99071V6.82928H5.60156ZM6.43539 5.62093H5.99056V5.94863H6.44115C6.51914 5.94863 6.61972 5.88819 6.61972 5.78478C6.61972 5.7044 6.54209 5.62093 6.43539 5.62093Z" fill="#016FD0"/>
<path d="M7.56775 6.82928H7.17041V5.27271H7.56775V6.82928Z" fill="#016FD0"/>
<path d="M8.51001 6.82928H8.42424C8.00927 6.82928 7.75732 6.50235 7.75732 6.05739C7.75732 5.60144 8.00645 5.27271 8.53049 5.27271H8.9606V5.64137H8.51477C8.30204 5.64137 8.15159 5.80738 8.15159 6.06123C8.15159 6.36268 8.32362 6.48929 8.57145 6.48929H8.67386L8.51001 6.82928Z" fill="#016FD0"/>
<path fill-rule="evenodd" clip-rule="evenodd" d="M8.68701 6.82928L9.35649 5.27271H9.86404L10.5329 6.82928H10.0874L9.96453 6.51758H9.2464L9.12288 6.82928H8.68701ZM9.82319 6.17977L9.6043 5.63509L9.38477 6.17977H9.82319Z" fill="#016FD0"/>
<path d="M10.5786 6.82928V5.27271H11.0734L11.7051 6.25068V5.27271H12.0942V6.82928H11.6155L10.9678 5.8257V6.82928H10.5786Z" fill="#016FD0"/>
<path d="M2.83643 9.55315V7.99658H4.10626V8.34476H3.22967V8.61102H4.08578V8.93872H3.22967V9.21521H4.10626V9.55315H2.83643Z" fill="#016FD0"/>
<path d="M9.05908 9.55315V7.99658H10.3289V8.34476H9.45232V8.61102H10.3043V8.93872H9.45232V9.21521H10.3289V9.55315H9.05908Z" fill="#016FD0"/>
<path d="M4.15583 9.55315L4.77411 8.78447L4.14111 7.99658H4.63138L5.00837 8.48365L5.38663 7.99658H5.8577L5.23302 8.77487L5.85243 9.55315H5.36224L4.9962 9.07376L4.63906 9.55315H4.15583Z" fill="#016FD0"/>
<path fill-rule="evenodd" clip-rule="evenodd" d="M5.89844 9.5534V7.99683H6.75801C7.11071 7.99683 7.31676 8.22415 7.31676 8.52038C7.31676 8.87797 7.05405 9.06185 6.70745 9.06185H6.29782V9.5534H5.89844ZM6.72924 8.34896H6.29785V8.70738H6.72796C6.84161 8.70738 6.92125 8.63206 6.92125 8.52817C6.92125 8.41759 6.84121 8.34896 6.72924 8.34896Z" fill="#016FD0"/>
<path fill-rule="evenodd" clip-rule="evenodd" d="M7.48584 9.55315V7.99658H8.35181C8.63875 7.99658 8.89584 8.17402 8.89584 8.50157C8.89584 8.78159 8.67908 8.96195 8.46894 8.97968L8.98097 9.55315H8.50542L8.03883 9.00016H7.87498V9.55315H7.48584ZM8.31983 8.34473H7.875V8.67242H8.32559C8.40358 8.67242 8.50416 8.61199 8.50416 8.50858C8.50416 8.4282 8.42653 8.34473 8.31983 8.34473Z" fill="#016FD0"/>
<path d="M10.5089 9.55315V9.21521H11.2877C11.4029 9.21521 11.4528 9.15294 11.4528 9.08465C11.4528 9.01921 11.4031 8.95306 11.2877 8.95306H10.9358C10.6298 8.95306 10.4595 8.76668 10.4595 8.48685C10.4595 8.23727 10.6155 7.99658 11.0701 7.99658H11.8279L11.664 8.34681H11.0086C10.8833 8.34681 10.8448 8.41255 10.8448 8.47533C10.8448 8.53986 10.8924 8.61102 10.9881 8.61102H11.3568C11.6978 8.61102 11.8458 8.80445 11.8458 9.05777C11.8458 9.3301 11.6809 9.55315 11.3382 9.55315H10.5089Z" fill="#016FD0"/>
<path d="M11.9371 9.55315V9.21521H12.7159C12.8311 9.21521 12.881 9.15294 12.881 9.08465C12.881 9.01921 12.8313 8.95306 12.7159 8.95306H12.364C12.0581 8.95306 11.8877 8.76668 11.8877 8.48685C11.8877 8.23727 12.0437 7.99658 12.4983 7.99658H13.2561L13.0922 8.34681H12.4368C12.3116 8.34681 12.273 8.41255 12.273 8.47533C12.273 8.53986 12.3207 8.61102 12.4164 8.61102H12.785C13.126 8.61102 13.274 8.80445 13.274 9.05777C13.274 9.3301 13.1091 9.55315 12.7665 9.55315H11.9371Z" fill="#016FD0"/>
<path d="M32.7509 12.3634H30.0625L31.744 1.96631H34.4322L32.7509 12.3634Z" fill="#00579F"/>
<path d="M42.4965 2.22048C41.9662 2.01011 41.1252 1.77783 40.0852 1.77783C37.4304 1.77783 35.5609 3.19353 35.5494 5.21755C35.5273 6.71087 36.8879 7.5403 37.9055 8.03822C38.9456 8.54702 39.2992 8.87911 39.2992 9.33263C39.2886 10.0292 38.4587 10.3502 37.6847 10.3502C36.6114 10.3502 36.0363 10.1847 35.1623 9.79718L34.8083 9.63106L34.4321 11.965C35.0627 12.2522 36.2243 12.5071 37.4304 12.5183C40.2512 12.5183 42.0876 11.1245 42.1094 8.96761C42.1201 7.78404 41.4017 6.87714 39.8528 6.13607C38.9125 5.66034 38.3367 5.33957 38.3367 4.85282C38.3477 4.41033 38.8237 3.9571 39.8851 3.9571C40.7591 3.9349 41.4012 4.14497 41.8877 4.3552L42.1309 4.4656L42.4965 2.22048Z" fill="#00579F"/>
<path fill-rule="evenodd" clip-rule="evenodd" d="M47.3085 1.96631H49.3879L51.5567 12.3632H49.0676C49.0676 12.3632 48.824 11.1686 48.7468 10.8036H45.2952C45.1954 11.08 44.731 12.3632 44.731 12.3632H41.9102L45.9034 2.82896C46.18 2.15419 46.6672 1.96631 47.3085 1.96631ZM47.1425 5.77112C47.1425 5.77112 46.2906 8.08283 46.0692 8.68013H48.3037C48.1932 8.16031 47.6841 5.67159 47.6841 5.67159L47.4962 4.77572C47.4171 5.00641 47.3027 5.32356 47.2255 5.53749C47.1732 5.68251 47.138 5.78008 47.1425 5.77112Z" fill="#00579F"/>
<path d="M27.8175 1.96631L25.1847 9.05612L24.897 7.61822C24.4103 5.95908 22.8837 4.15645 21.1802 3.26014L23.5917 12.3524H26.4346L30.6602 1.96631H27.8175V1.96631Z" fill="#00579F"/>
<path d="M22.7397 1.96631H18.4144L18.3701 2.17638C21.7441 3.03918 23.9787 5.11892 24.8967 7.61866L23.9565 2.84028C23.8017 2.17624 23.3259 1.98821 22.7397 1.96631Z" fill="#FAA61A"/>
<rect x="89.6187" y="2.99731" width="4.91307" height="8.83058" fill="#6C6BBD"/>
<path d="M89.9268 7.41254C89.9268 5.62054 90.7631 4.02765 92.0722 2.99725C91.1165 2.24561 89.9119 1.79761 88.6027 1.79761C85.5016 1.79761 82.9878 4.31138 82.9878 7.41254C82.9878 10.5137 85.5016 13.0275 88.6027 13.0275C89.9119 13.0275 91.1165 12.5795 92.0722 11.8278C90.7681 10.7974 89.9268 9.20454 89.9268 7.41254Z" fill="#D32011"/>
<path d="M101.157 7.41254C101.157 10.5137 98.6429 13.0275 95.5418 13.0275C94.2326 13.0275 93.028 12.5795 92.0723 11.8278C93.3764 10.7974 94.2177 9.20454 94.2177 7.41254C94.2177 5.62054 93.3814 4.02765 92.0723 2.99725C93.028 2.24561 94.2326 1.79761 95.5418 1.79761C98.6429 1.79761 101.157 4.31138 101.157 7.41254Z" fill="#0099DF"/>
<path fill-rule="evenodd" clip-rule="evenodd" d="M94.4622 14.6551H94.9948V14.3514H94.4671V13.8984H94.1386V14.3514H93.835V14.6501H94.1386V15.332C94.1386 15.6805 94.273 15.8846 94.6563 15.8846C94.7957 15.8846 94.955 15.8398 95.0595 15.7701L94.9649 15.4913C94.8654 15.5461 94.7608 15.576 94.6762 15.576C94.5169 15.576 94.4622 15.4764 94.4622 15.3271V14.6551ZM96.4184 14.3614C96.3487 14.3365 96.2542 14.3216 96.1895 14.3216C96.0053 14.3216 95.8808 14.4062 95.7962 14.5357V14.3565H95.4727V15.8448H95.7962V15.0085C95.7962 14.7646 95.9007 14.6253 96.1148 14.6253C96.1795 14.6253 96.2492 14.6352 96.3189 14.6651L96.4184 14.3614ZM90.8431 14.9736C90.8779 14.7595 91.0074 14.6102 91.2413 14.6102C91.4504 14.6102 91.5848 14.7396 91.6196 14.9736H90.8431ZM91.2462 14.3216C91.6644 14.3216 91.9481 14.6402 91.9531 15.1031C91.9531 15.1262 91.9518 15.1479 91.9505 15.169C91.9493 15.1889 91.9481 15.2082 91.9481 15.2276H90.843C90.8928 15.4964 91.082 15.5909 91.291 15.5909C91.4404 15.5909 91.5997 15.5362 91.7241 15.4366L91.8834 15.6756C91.6992 15.8299 91.4951 15.8846 91.2711 15.8846C90.8231 15.8846 90.5046 15.576 90.5046 15.1031C90.5046 14.6402 90.8082 14.3216 91.2462 14.3216ZM93.377 14.7397C93.2874 14.685 93.1032 14.6103 92.9141 14.6103C92.7349 14.6103 92.6303 14.675 92.6303 14.7845C92.6303 14.8841 92.7448 14.914 92.8842 14.9289L93.0385 14.9488C93.3621 14.9936 93.5612 15.133 93.5612 15.3968C93.5612 15.6805 93.3123 15.8846 92.8792 15.8846C92.6353 15.8846 92.4113 15.8199 92.2321 15.6905L92.3864 15.4366C92.4959 15.5213 92.6602 15.5909 92.8842 15.5909C93.1032 15.5909 93.2227 15.5262 93.2227 15.4117C93.2227 15.3271 93.1381 15.2823 92.9589 15.2574L92.8045 15.2375C92.471 15.1927 92.2918 15.0384 92.2918 14.7995C92.2918 14.5008 92.5357 14.3216 92.9141 14.3216C93.153 14.3216 93.367 14.3764 93.5213 14.4759L93.377 14.7397ZM97.1949 14.6651C97.2496 14.6402 97.3143 14.6302 97.379 14.6302C97.4438 14.6302 97.5035 14.6402 97.5632 14.6651C97.623 14.6899 97.6727 14.7248 97.7126 14.7646C97.7574 14.8044 97.7872 14.8542 97.8121 14.9139C97.837 14.9737 97.847 15.0384 97.847 15.1081C97.847 15.1778 97.837 15.2425 97.8121 15.3022C97.7872 15.357 97.7574 15.4117 97.7126 15.4515C97.6727 15.4963 97.623 15.5262 97.5632 15.5511C97.5085 15.576 97.4438 15.5859 97.379 15.5859C97.3143 15.5859 97.2546 15.576 97.1949 15.5511C97.1351 15.5262 97.0854 15.4914 97.0455 15.4515C97.0007 15.4117 96.9709 15.3619 96.946 15.3022C96.9211 15.2425 96.9111 15.1778 96.9111 15.1081C96.9111 15.0384 96.9211 14.9737 96.946 14.9139C96.9709 14.8592 97.0057 14.8044 97.0455 14.7646C97.0903 14.7198 97.1401 14.6899 97.1949 14.6651ZM97.379 14.3216C97.4935 14.3216 97.603 14.3415 97.7025 14.3813C97.8021 14.4212 97.8867 14.4759 97.9564 14.5456C98.0261 14.6153 98.0858 14.6999 98.1257 14.7945C98.1655 14.8891 98.1854 14.9936 98.1854 15.1081C98.1854 15.2226 98.1655 15.3271 98.1257 15.4217C98.0858 15.5163 98.0311 15.6009 97.9564 15.6706C97.8867 15.7403 97.7971 15.795 97.7025 15.8349C97.603 15.8747 97.4985 15.8946 97.379 15.8946C97.2645 15.8946 97.155 15.8747 97.0554 15.8349C96.9559 15.795 96.8713 15.7403 96.8016 15.6706C96.7319 15.6009 96.6721 15.5163 96.6323 15.4217C96.5925 15.3271 96.5726 15.2226 96.5726 15.1081C96.5726 14.9936 96.5925 14.8891 96.6323 14.7945C96.6721 14.6999 96.7269 14.6153 96.8016 14.5456C96.8713 14.4759 96.9559 14.4212 97.0554 14.3813C97.155 14.3415 97.2595 14.3216 97.379 14.3216ZM89.3996 14.6252C89.1159 14.6252 88.9466 14.8392 88.9466 15.103C88.9466 15.3669 89.1159 15.5809 89.3996 15.5809C89.6684 15.5809 89.8476 15.3768 89.8476 15.103C89.8476 14.8293 89.6684 14.6252 89.3996 14.6252ZM90.1512 15.1031V14.3564H89.8276V14.5356C89.7231 14.4012 89.5688 14.3166 89.3547 14.3166C88.9366 14.3166 88.6081 14.6451 88.6081 15.0981C88.6081 15.5511 88.9366 15.8796 89.3547 15.8796C89.5688 15.8796 89.7231 15.795 89.8276 15.6606V15.8398H90.1512V15.1031ZM88.3244 14.9139V15.8448H87.9959V15.0135C87.9959 14.7596 87.8913 14.6202 87.6673 14.6202C87.4533 14.6202 87.304 14.7596 87.304 15.0185V15.8448H86.9754V15.0135C86.9754 14.7596 86.8659 14.6202 86.6519 14.6202C86.4328 14.6202 86.2885 14.7596 86.2885 15.0185V15.8448H85.96V14.3564H86.2835V14.5406C86.408 14.3664 86.5623 14.3216 86.7216 14.3216C86.9505 14.3216 87.1098 14.4211 87.2144 14.5854C87.3488 14.3763 87.5479 14.3166 87.737 14.3216C88.1004 14.3265 88.3244 14.5605 88.3244 14.9139Z" fill="#110F0D"/>
</g>
<defs>
<clipPath id="clip0">
<rect width="101.333" height="16" fill="white"/>
</clipPath>
</defs>
</svg>
