<?xml version="1.0" standalone="no"?>
<!DOCTYPE svg PUBLIC "-//W3C//DTD SVG 20010904//EN"
 "http://www.w3.org/TR/2001/REC-SVG-20010904/DTD/svg10.dtd">
<svg version="1.0" xmlns="http://www.w3.org/2000/svg"
 width="1171.000000pt" height="1280.000000pt" viewBox="0 0 1171.000000 1280.000000"
 preserveAspectRatio="xMidYMid meet">
<g transform="translate(0.000000,1280.000000) scale(0.100000,-0.100000)"
fill="#000000" stroke="none">
<path d="M11560 12688 c-2063 -1426 -4216 -3664 -6295 -6542 -671 -929 -1445
-2103 -2024 -3069 -38 -62 -57 -87 -68 -83 -8 3 -705 467 -1548 1030 -844 564
-1544 1030 -1556 1037 -19 10 -17 4 12 -37 20 -27 836 -1147 1815 -2489 979
-1342 1790 -2455 1802 -2473 13 -17 27 -32 31 -32 4 0 70 147 146 328 695
1643 1373 3072 2107 4437 1529 2841 3292 5347 5367 7624 272 300 274 301 264
301 -4 -1 -28 -15 -53 -32z"/>
</g>
</svg>
