<svg width="13" height="16" viewBox="0 0 13 16" fill="none" xmlns="http://www.w3.org/2000/svg">
<rect y="6.19995" width="13" height="9.1" rx="1.3" fill="#2A8088"/>
<path d="M2.6001 6.19976C2.6001 -0.733554 10.4001 -0.733548 10.4001 6.19976" stroke="#2A8088"/>
<path d="M4.25346 9.74625C4.05819 9.55099 3.74161 9.55099 3.54635 9.74625C3.35109 9.94151 3.35109 10.2581 3.54635 10.4534L4.25346 9.74625ZM6.4999 12.6998L6.14635 13.0534L6.4999 13.4069L6.85346 13.0534L6.4999 12.6998ZM10.7535 9.15336C10.9487 8.9581 10.9487 8.64151 10.7535 8.44625C10.5582 8.25099 10.2416 8.25099 10.0463 8.44625L10.7535 9.15336ZM3.54635 10.4534L6.14635 13.0534L6.85346 12.3463L4.25346 9.74625L3.54635 10.4534ZM6.85346 13.0534L10.7535 9.15336L10.0463 8.44625L6.14635 12.3463L6.85346 13.0534Z" fill="white"/>
</svg>
