<svg width="24" height="24" viewBox="0 0 24 24" fill="none" xmlns="http://www.w3.org/2000/svg">
<path fill-rule="evenodd" clip-rule="evenodd" d="M20.3334 3.8501C21.2872 3.8501 22.0683 4.60454 22.1441 5.56166L22.1501 5.71438V18.2858C22.1501 19.2627 21.4166 20.066 20.4825 20.1439L20.3334 20.1501H3.66676C2.71302 20.1501 1.93185 19.3957 1.85612 18.4385L1.8501 18.2858V5.71438C1.8501 4.73746 2.58358 3.93417 3.51768 3.85629L3.66676 3.8501H20.3334ZM20.7381 11.0071H3.2611L3.26121 18.2858C3.26121 18.4891 3.40193 18.6593 3.58567 18.6987L3.66676 18.7072H20.3334C20.5275 18.7072 20.6924 18.5625 20.7307 18.3706L20.739 18.2858L20.7381 11.0071ZM8.2501 15.2787C8.53177 15.2787 8.76543 15.49 8.80935 15.7639L8.81676 15.8572V16.143C8.81676 16.4288 8.61127 16.6688 8.34202 16.7139L8.2501 16.7215H5.7501C5.46842 16.7215 5.23476 16.5102 5.19085 16.2363L5.18343 16.143V15.8572C5.18343 15.5714 5.38893 15.3314 5.65818 15.2863L5.7501 15.2787H8.2501ZM14.9168 15.2787C15.1984 15.2787 15.4321 15.49 15.476 15.7639L15.4834 15.8572V16.143C15.4834 16.4288 15.2779 16.6688 15.0087 16.7139L14.9168 16.7215H10.1945C9.91287 16.7215 9.67921 16.5102 9.63529 16.2363L9.62788 16.143V15.8572C9.62788 15.5714 9.83337 15.3314 10.1026 15.2863L10.1945 15.2787H14.9168ZM20.3334 5.29295H3.66676C3.47273 5.29295 3.30775 5.4377 3.26954 5.62956L3.26121 5.71438L3.2611 7.2781H20.7381L20.739 5.71438C20.739 5.51106 20.5983 5.3409 20.4145 5.30153L20.3334 5.29295Z" fill="#2A8088"/>
</svg>
