<svg width="20" height="18" viewBox="0 0 20 18" fill="none" xmlns="http://www.w3.org/2000/svg">
<path d="M17.513 9.58341L10.013 17.0114L2.513 9.58341C2.0183 9.10202 1.62864 8.52342 1.36854 7.88404C1.10845 7.24466 0.983558 6.55836 1.00173 5.86834C1.01991 5.17832 1.18076 4.49954 1.47415 3.87474C1.76755 3.24994 2.18713 2.69266 2.70648 2.23799C3.22583 1.78331 3.8337 1.4411 4.49181 1.23289C5.14991 1.02468 5.844 0.954991 6.53036 1.02821C7.21673 1.10143 7.8805 1.31596 8.47987 1.65831C9.07925 2.00066 9.60124 2.46341 10.013 3.01741C10.4265 2.46743 10.9491 2.00873 11.5481 1.67001C12.1471 1.3313 12.8095 1.11986 13.4939 1.04893C14.1784 0.977998 14.8701 1.04911 15.5258 1.2578C16.1815 1.46649 16.787 1.80828 17.3045 2.26177C17.8221 2.71526 18.2404 3.27069 18.5334 3.8933C18.8264 4.51591 18.9877 5.19229 19.0073 5.88012C19.0269 6.56794 18.9043 7.2524 18.6471 7.89066C18.39 8.52892 18.0039 9.10723 17.513 9.58941" stroke="#19707D" stroke-width="1.5" stroke-linecap="round" stroke-linejoin="round"/>
</svg>
